# xmcd
#
# Track frame offsets:
#	150
#	16019
#	28471
#	42832
#	60863
#	75898
#	86418
#	100832
#	113557
#	128206
#	144603
#	159747
#	175327
#	187669
#
# Disc length: 2776 seconds
# Revision: 0
# Processed by: cddbd v1.5.2PL0 Copyright (c) Steve Scherf et al.
# Submitted via: dBpowerAMP V12.0
#
DISCID=a00ad60e
DTITLE=Big Sandy and His Fly-Rite Boys - Turntable Matinee
DYEAR=2006
DGENRE=Americana
TTITLE0=Power of the 45, Pt. 1
TTITLE1=Love That Man
TTITLE2=The Great State of Misery
TTITLE3=Haunted Heels
TTITLE4=Ruby Jane
TTITLE5=Spanish Dagger
TTITLE6=Mad
TTITLE7=The Ones You Say You Love
TTITLE8=You Don't Know Me at All
TTITLE9=Yes (I Feel Sorry for You)
TTITLE10=Lonesome Dollar
TTITLE11=Slippin' Away
TTITLE12=I Know I've Loved You Before
TTITLE13=Power of the 45, Pt. 2
EXTD=
EXTT0=
EXTT1=
EXTT2=
EXTT3=
EXTT4=
EXTT5=
EXTT6=
EXTT7=
EXTT8=
EXTT9=
EXTT10=
EXTT11=
EXTT12=
EXTT13=
PLAYORDER=
